# xmcd
#
# Track frame offsets:
#	150
#	10965
#	22587
#	38220
#	52482
#	65387
#	80107
#	97767
#	117990
#
# Disc length: 1782
#
# Revision: 3
# Processed by: cddbd v1.5.1PL0 Copyright (c) Steve Scherf et al.
# Submitted via: EasyCDDAExtractor 7.0.0.1
# Normalized: r2:DSETVAR1
#
DISCID=6d06f409
DTITLE=Various Artist - Two Stepping Country Vol 1
DYEAR=1900
DGENRE=Country
TTITLE0=Mark Chestnut - Old Flames Have New Names
TTITLE1=Chris Ledoux - Whatcha Gonna Do With A Cowboy
TTITLE2=Ricky Van Shelton - I Am A Simple Man
TTITLE3=Aaron Tippin - The Man That Came Between Us
TTITLE4=Mark Collie - Shes Never Comin' Back
TTITLE5=Rodney Crowell - She's Crazy For Leavin'
TTITLE6=Steve Warriner - Crash Course in the Blues
TTITLE7=Lee Roy Parnell - Fifty-Fifty Love
TTITLE8=George Jones - I Don't Need Your Rockin' Chair
EXTD=
EXTT0=
EXTT1=
EXTT2=
EXTT3=
EXTT4=
EXTT5=
EXTT6=
EXTT7=
EXTT8=
PLAYORDER=
